<?xml version="1.0" standalone="no"?>
<!DOCTYPE svg PUBLIC "-//W3C//DTD SVG 20010904//EN"
 "http://www.w3.org/TR/2001/REC-SVG-20010904/DTD/svg10.dtd">
<svg version="1.0" xmlns="http://www.w3.org/2000/svg"
 width="500.000000pt" height="500.000000pt" viewBox="0 0 500.000000 500.000000"
 preserveAspectRatio="xMidYMid meet">

<g transform="translate(0.000000,500.000000) scale(0.100000,-0.100000)"
fill="#000000" stroke="none">
<path d="M1856 3574 c-3 -9 -6 -262 -6 -562 l1 -547 44 50 45 50 0 463 0 462
85 0 85 0 0 50 0 50 -124 0 c-104 0 -125 -3 -130 -16z"/>
<path d="M2820 3541 l0 -50 88 -3 87 -3 3 -402 2 -403 40 0 40 0 -2 453 -3
452 -127 3 -128 3 0 -50z"/>
<path d="M3247 2694 c-8 -8 -9 -48 -2 -56 3 -3 17 -3 31 0 20 4 25 10 22 31
-3 26 -35 41 -51 25z"/>
<path d="M2270 2626 c0 -2 7 -7 16 -10 8 -3 12 -2 9 4 -6 10 -25 14 -25 6z"/>
<path d="M3038 2597 c7 -7 18 -29 26 -48 l15 -34 1 48 c0 44 -2 47 -26 47 -21
0 -24 -3 -16 -13z"/>
<path d="M1893 2335 l-43 -58 0 -106 c0 -70 4 -111 12 -119 9 -9 148 -12 564
-12 l552 0 -2 54 c-3 62 -10 74 -85 129 l-55 41 -80 -87 -81 -87 -367 0 -367
0 -3 151 -3 151 -42 -57z"/>
<path d="M1097 1690 c-46 -14 -98 -60 -118 -104 -35 -77 -16 -179 42 -233 59
-54 39 -53 829 -53 798 0 770 -2 833 58 43 41 59 79 59 142 0 63 -16 101 -59
142 -63 60 -35 58 -830 57 -400 0 -741 -5 -756 -9z"/>
</g>
</svg>
